<svg xmlns="http://www.w3.org/2000/svg" width="23" height="22" viewBox="0 0 23 22">
    <g fill="#53A8E2">
        <path d="M17.875 10.426L13.899.853c-.094-.226-.277-.367-.479-.368h-.001c-.2 0-.384.14-.48.365L9.298 9.498c-.06.143-.05.318.028.446l.892 1.488c.098.164.248.263.41.271.163.009.319-.075.427-.23l1.41-2.006 2.74 4.115c.102.153.252.242.41.244h.005c.156 0 .305-.086.408-.236l1.625-2.355c.009-.014.018-.028.025-.043l.18-.343c.067-.127.074-.289.018-.423zm-.726.284l-1.529 2.217-2.74-4.114c-.101-.152-.25-.242-.407-.244h-.007c-.155 0-.302.083-.405.23l-1.406 2-.686-1.145 3.45-8.19 3.79 9.13-.06.116z"/>
        <path d="M22.159 20.255l-2.552-6.145c-.084-.201-.28-.279-.44-.172-.158.107-.219.357-.135.559l2.47 5.945h-8.658c-.01-.064-3.772-9.144-3.772-9.144l.56-1.327.585.976c.098.165.248.264.41.272.163.008.319-.076.427-.23l1.41-2.007 2.74 4.115c.102.154.252.243.41.244h.005c.156 0 .305-.085.408-.235l.004-.005 1.494-2.234.607 1.462c.084.202.28.28.439.172.159-.106.22-.356.136-.558L13.899.368C13.805.142 13.622.001 13.42 0h-.001c-.201 0-.384.14-.48.365L9.528 8.468l-.23.546-.59 1.403-1.757-4.23c-.071-.17-.192-.291-.333-.342-.047-.017-.096-.026-.147-.026H6.45l-.017.002c-.005 0-.01 0-.015.002l-.022.002-.02.005-.015.003c-.157.04-.293.167-.37.351L4.8 9.009l-2 4.75-.002.003-2.733 6.49c-.091.216-.086.47.013.68.099.211.273.337.466.337h21.134c.193 0 .367-.125.466-.334.1-.21.105-.464.015-.68zM10.067 8.936L13.418.98l3.78 9.1-1.579 2.36-2.738-4.111c-.102-.153-.25-.242-.408-.245h-.007c-.155 0-.302.084-.405.23l-1.406 2.001L9.97 9.17l.098-.234zM.722 20.442l2.461-5.844.95 1.011c.102.11.225.163.349.163.149 0 .297-.079.405-.232l1.088-1.552.701.885c.127.16.333.16.46-.003.126-.162.125-.423-.002-.584l-.78-.986c-.106-.133-.251-.205-.4-.2-.149.006-.29.09-.39.23l-1.093 1.561-.974-1.037 2.971-7.055 3.834 9.232-.925 1.085-.847-1.069c-.127-.16-.333-.16-.46.003-.126.162-.125.424.002.584l.92 1.16c.105.134.244.201.382.201.132 0 .264-.06.368-.183l.875-1.025 1.518 3.655H.722z"/>
    </g>
</svg>
